<?xml version="1.0" standalone="no"?>
<!DOCTYPE svg PUBLIC "-//W3C//DTD SVG 20010904//EN"
 "http://www.w3.org/TR/2001/REC-SVG-20010904/DTD/svg10.dtd">
<svg version="1.0" xmlns="http://www.w3.org/2000/svg"
 width="260.000000pt" height="260.000000pt" viewBox="0 0 260.000000 260.000000"
 preserveAspectRatio="xMidYMid meet">
<metadata>
Created by potrace 1.11, written by Peter Selinger 2001-2013
</metadata>
<g transform="translate(0.000000,260.000000) scale(0.100000,-0.100000)"
fill="#000000" stroke="none">
<path d="M0 1300 l0 -1300 1300 0 1300 0 0 1300 0 1300 -1300 0 -1300 0 0
-1300z m1554 998 c10 -14 16 -44 16 -80 l0 -57 194 -3 c211 -3 221 -6 268 -69
10 -13 79 -175 154 -359 76 -184 149 -351 164 -370 64 -83 65 -86 65 -315 0
-181 -2 -214 -17 -242 -16 -27 -18 -60 -18 -233 0 -172 -3 -206 -17 -231 -27
-46 -68 -59 -180 -59 -167 0 -193 31 -193 230 l0 120 -690 0 -690 0 0 -120 c0
-199 -26 -230 -193 -230 -112 0 -153 13 -180 59 -14 25 -17 59 -17 231 0 173
-2 206 -17 233 -16 28 -18 61 -18 242 0 229 1 232 65 315 14 19 71 143 125
275 173 425 185 452 213 478 44 42 73 47 263 47 l179 0 0 58 c0 36 6 66 16 80
15 22 18 22 254 22 236 0 239 0 254 -22z"/>
<path d="M656 2028 c-8 -13 -42 -90 -76 -173 -34 -82 -83 -204 -111 -270 -27
-66 -49 -124 -49 -128 0 -4 397 -7 881 -7 835 0 881 1 876 18 -9 31 -197 486
-220 532 l-22 45 -632 3 -632 2 -15 -22z"/>
<path d="M377 1142 c-24 -26 -24 -173 -1 -196 13 -14 50 -16 253 -16 171 0
240 3 249 12 7 7 12 45 12 98 0 126 13 120 -267 120 -210 0 -231 -2 -246 -18z"/>
<path d="M1727 1142 c-21 -23 -24 -181 -5 -200 9 -9 78 -12 249 -12 203 0 240
2 253 16 12 11 16 36 16 98 0 121 12 116 -267 116 -210 0 -231 -2 -246 -18z"/>
<path d="M1016 1094 c-22 -22 -21 -87 2 -107 16 -15 51 -17 284 -17 297 0 298
0 298 73 0 67 0 67 -300 67 -231 0 -271 -2 -284 -16z"/>
</g>
</svg>
